<svg xmlns="http://www.w3.org/2000/svg" xmlns:xlink="http://www.w3.org/1999/xlink" width="100" zoomAndPan="magnify" viewBox="0 0 75 74.999997" height="100" preserveAspectRatio="xMidYMid meet" version="1.0"><defs><clipPath id="1dde194cc1"><path d="M 2 0 L 73.21875 0 L 73.21875 75 L 2 75 Z M 2 0 " clip-rule="nonzero"/></clipPath></defs><g clip-path="url(#1dde194cc1)"><path fill="#6a2985" d="M 53.15625 74.992188 C 53.027344 74.992188 52.898438 74.992188 52.769531 74.992188 C 52.207031 74.992188 51.644531 74.992188 51.082031 74.992188 C 50.550781 75 50.035156 74.882812 49.523438 74.773438 C 48.273438 74.503906 47.039062 74.171875 45.832031 73.746094 C 45.023438 73.457031 44.226562 73.128906 43.441406 72.785156 C 41.65625 72.007812 39.917969 71.125 38.109375 70.40625 C 36.945312 69.945312 35.753906 69.597656 34.515625 69.417969 C 33.917969 69.328125 33.324219 69.253906 32.722656 69.21875 C 32.371094 69.195312 32.015625 69.152344 31.664062 69.175781 C 31 69.214844 30.335938 69.261719 29.675781 69.339844 C 28.910156 69.429688 28.148438 69.550781 27.386719 69.679688 C 26.761719 69.789062 26.148438 69.9375 25.535156 70.09375 C 24.410156 70.382812 23.300781 70.722656 22.207031 71.113281 C 20.921875 71.578125 19.621094 71.984375 18.289062 72.285156 C 17.578125 72.449219 16.859375 72.542969 16.128906 72.609375 C 15.214844 72.691406 14.300781 72.671875 13.386719 72.65625 C 12.171875 72.632812 11.003906 72.367188 9.894531 71.855469 C 9.4375 71.644531 8.992188 71.410156 8.550781 71.164062 C 8.121094 70.925781 7.753906 70.613281 7.386719 70.300781 C 7.023438 69.996094 6.675781 69.675781 6.339844 69.339844 C 5.613281 68.613281 5.019531 67.78125 4.496094 66.902344 C 3.667969 65.507812 3.050781 64.019531 2.574219 62.472656 C 2.34375 61.710938 2.195312 60.933594 2.121094 60.136719 C 2.097656 59.871094 2.074219 59.601562 2.066406 59.335938 C 2.101562 58.925781 2.039062 58.523438 2.003906 58.117188 C 1.96875 57.65625 2.113281 57.203125 2.066406 56.742188 C 2.09375 56.097656 2.210938 55.460938 2.332031 54.828125 C 2.476562 54.058594 2.632812 53.289062 2.871094 52.542969 C 3.097656 51.832031 3.363281 51.140625 3.664062 50.460938 C 3.949219 49.8125 4.242188 49.164062 4.566406 48.53125 C 5.222656 47.246094 5.914062 45.980469 6.640625 44.734375 C 7.300781 43.597656 7.933594 42.445312 8.59375 41.3125 C 9.171875 40.3125 9.710938 39.296875 10.207031 38.253906 C 10.835938 36.921875 11.394531 35.558594 11.730469 34.113281 C 11.902344 33.371094 12.027344 32.621094 12.105469 31.863281 C 12.167969 31.289062 12.175781 30.71875 12.140625 30.152344 C 12.105469 29.542969 12.078125 28.929688 11.980469 28.324219 C 11.886719 27.710938 11.84375 27.085938 11.765625 26.46875 C 11.699219 25.925781 11.617188 25.386719 11.542969 24.84375 C 11.445312 24.1875 11.347656 23.527344 11.253906 22.871094 C 11.171875 22.308594 11.085938 21.746094 11.011719 21.179688 C 10.957031 20.753906 10.894531 20.328125 10.875 19.902344 C 10.828125 18.976562 10.722656 18.054688 10.742188 17.132812 C 10.789062 15.160156 11.097656 13.238281 11.863281 11.40625 C 12.265625 10.441406 12.769531 9.527344 13.320312 8.640625 C 13.828125 7.824219 14.40625 7.0625 15.066406 6.363281 C 15.910156 5.46875 16.851562 4.695312 17.84375 3.96875 C 19.242188 2.949219 20.796875 2.242188 22.394531 1.628906 C 23.628906 1.15625 24.882812 0.726562 26.175781 0.433594 C 26.792969 0.292969 27.414062 0.179688 28.046875 0.121094 C 28.828125 0.046875 29.609375 0 30.394531 0 C 31.042969 0.00390625 31.679688 0.0664062 32.324219 0.117188 C 32.882812 0.15625 33.433594 0.242188 33.984375 0.324219 C 34.636719 0.417969 35.265625 0.601562 35.882812 0.816406 C 36.761719 1.117188 37.597656 1.511719 38.414062 1.949219 C 39.136719 2.335938 39.84375 2.75 40.5625 3.136719 C 41.234375 3.5 41.929688 3.816406 42.621094 4.148438 C 43.75 4.695312 44.929688 5.085938 46.125 5.445312 C 47.054688 5.722656 48.007812 5.878906 48.957031 6.0625 C 49.382812 6.144531 49.828125 6.210938 50.269531 6.097656 C 50.351562 6.078125 50.441406 6.089844 50.527344 6.089844 C 51.085938 6.085938 51.648438 6.089844 52.207031 6.085938 C 52.960938 6.078125 53.710938 6.144531 54.460938 6.199219 C 55.039062 6.238281 55.617188 6.289062 56.191406 6.355469 C 56.992188 6.449219 57.777344 6.625 58.554688 6.839844 C 59.519531 7.109375 60.46875 7.429688 61.367188 7.875 C 62.390625 8.378906 63.390625 8.929688 64.292969 9.636719 C 65.347656 10.46875 66.101562 11.523438 66.625 12.757812 C 66.945312 13.503906 67.195312 14.269531 67.296875 15.074219 C 67.394531 15.832031 67.410156 16.589844 67.339844 17.359375 C 67.222656 18.660156 66.785156 19.871094 66.324219 21.078125 C 65.820312 22.40625 65.417969 23.769531 65.144531 25.164062 C 65.046875 25.664062 64.976562 26.179688 64.984375 26.699219 C 64.996094 27.3125 64.976562 27.929688 64.996094 28.542969 C 65.015625 29.070312 65.089844 29.589844 65.15625 30.113281 C 65.246094 30.816406 65.371094 31.511719 65.507812 32.207031 C 65.679688 33.105469 65.875 34 66.1875 34.859375 C 66.589844 35.957031 67.019531 37.050781 67.449219 38.140625 C 67.625 38.582031 67.816406 39.015625 68.019531 39.441406 C 68.398438 40.238281 68.789062 41.03125 69.179688 41.824219 C 69.632812 42.742188 70.101562 43.652344 70.542969 44.574219 C 71.105469 45.75 71.679688 46.917969 72.078125 48.164062 C 72.417969 49.230469 72.710938 50.308594 72.863281 51.417969 C 72.964844 52.128906 73.03125 52.847656 73.015625 53.570312 C 73.015625 54.089844 73.015625 54.609375 73.015625 55.128906 C 72.976562 57.109375 72.398438 58.929688 71.425781 60.644531 C 70.84375 61.671875 70.113281 62.578125 69.324219 63.449219 C 68.59375 64.253906 67.867188 65.0625 67.070312 65.804688 C 66.464844 66.371094 65.867188 66.945312 65.300781 67.546875 C 64.558594 68.328125 63.835938 69.125 63.074219 69.882812 C 62.351562 70.605469 61.574219 71.269531 60.761719 71.886719 C 59.9375 72.515625 59.089844 73.097656 58.171875 73.574219 C 56.921875 74.222656 55.609375 74.683594 54.210938 74.871094 C 53.859375 74.917969 53.511719 74.96875 53.15625 74.992188 Z M 53.15625 74.992188 " fill-opacity="1" fill-rule="nonzero"/></g></svg>