<svg xmlns="http://www.w3.org/2000/svg" xmlns:xlink="http://www.w3.org/1999/xlink" width="100" zoomAndPan="magnify" viewBox="0 0 75 74.999997" height="100" preserveAspectRatio="xMidYMid meet" version="1.0"><defs><clipPath id="291c288be2"><path d="M 0 14 L 75 14 L 75 66 L 0 66 Z M 0 14 " clip-rule="nonzero"/></clipPath><clipPath id="346505628c"><path d="M 79.886719 49.429688 L 4.246094 68.476562 L -6.558594 25.5625 L 69.082031 6.519531 Z M 79.886719 49.429688 " clip-rule="nonzero"/></clipPath><clipPath id="89cffc6a94"><path d="M 79.886719 49.429688 L 4.246094 68.476562 L -6.558594 25.5625 L 69.082031 6.519531 Z M 79.886719 49.429688 " clip-rule="nonzero"/></clipPath><clipPath id="f4d77509e1"><path d="M 79.882812 49.421875 L 4.484375 68.40625 L -6.390625 25.21875 L 69.007812 6.234375 Z M 79.882812 49.421875 " clip-rule="nonzero"/></clipPath></defs><g clip-path="url(#291c288be2)"><g clip-path="url(#346505628c)"><g clip-path="url(#89cffc6a94)"><g clip-path="url(#f4d77509e1)"><path fill="#f55712" d="M 4.308594 60.355469 C 8.242188 65 12.734375 65.902344 17.425781 65.101562 C 24.453125 63.898438 30.96875 57.457031 37.683594 55.417969 C 45.5625 53.027344 46.816406 54.351562 53.636719 54.261719 C 60.066406 54.179688 66.214844 51.332031 70.324219 46.28125 C 75.859375 39.472656 75.851562 31.710938 73.636719 24.914062 C 71.410156 18.0625 65.40625 13.054688 56.195312 14.789062 C 52.042969 16.007812 46.761719 20.871094 41.136719 21.863281 C 34.242188 23.085938 31.6875 19.273438 26.960938 18.238281 C 16.835938 16.023438 8.644531 26.171875 12.78125 33.472656 C 14.007812 35.636719 13.96875 38.699219 12.648438 40.371094 C 10.449219 42.800781 6.183594 41.078125 3.617188 44.5 C -0.230469 49.628906 -0.679688 54.460938 4.308594 60.355469 " fill-opacity="1" fill-rule="nonzero"/></g></g></g></g></svg>