<svg xmlns="http://www.w3.org/2000/svg" xmlns:xlink="http://www.w3.org/1999/xlink" width="100" zoomAndPan="magnify" viewBox="0 0 75 74.999997" height="100" preserveAspectRatio="xMidYMid meet" version="1.0"><defs><clipPath id="59ee78a82b"><path d="M 0 3.609375 L 75 3.609375 L 75 71.109375 L 0 71.109375 Z M 0 3.609375 " clip-rule="nonzero"/></clipPath></defs><g clip-path="url(#59ee78a82b)"><path fill="#fdc110" d="M 51.613281 3.609375 L 50.230469 3.855469 C 47.5 4.085938 44.066406 6.167969 39.921875 10.109375 C 39.039062 10.488281 37.148438 15.25 34.253906 24.394531 C 33.386719 25.859375 32.285156 27.195312 30.941406 28.398438 C 28.789062 30.339844 26.769531 31.671875 24.882812 32.394531 C 20.097656 34.21875 15.578125 35.523438 11.332031 36.300781 L 7.636719 38.273438 C 4.867188 40.039062 2.832031 42.839844 1.53125 46.664062 C 0.515625 49.023438 0.324219 51.886719 0.964844 55.25 C 2.503906 60.125 4.378906 63.632812 6.589844 65.765625 C 8.738281 67.761719 11.183594 69.21875 13.925781 70.136719 C 15.296875 70.59375 16.742188 70.917969 18.261719 71.105469 C 19.78125 71.296875 21.375 71.351562 23.046875 71.269531 L 25.601562 71.046875 C 28.308594 70.589844 31.59375 69.164062 35.457031 66.777344 C 37.382812 65.519531 39.789062 63.070312 42.664062 59.429688 C 43.175781 58.914062 43.941406 58.378906 44.964844 57.828125 L 47.070312 57.042969 C 52.785156 55.804688 56.347656 54.957031 57.761719 54.503906 C 60.074219 53.707031 61.945312 52.871094 63.371094 51.988281 C 68.664062 48.5625 71.910156 45.257812 73.109375 42.066406 C 74.363281 39.199219 74.707031 36.257812 74.144531 33.238281 C 69.570312 21.726562 67.269531 15.007812 67.234375 13.09375 L 66.160156 11.109375 C 64.789062 8.898438 63.070312 7.175781 61.003906 5.941406 C 59.96875 5.324219 58.847656 4.832031 57.640625 4.457031 L 55.761719 3.992188 C 54.464844 3.742188 53.082031 3.613281 51.613281 3.609375 " fill-opacity="1" fill-rule="nonzero"/></g></svg>