<svg xmlns="http://www.w3.org/2000/svg" xmlns:xlink="http://www.w3.org/1999/xlink" width="100" zoomAndPan="magnify" viewBox="0 0 75 74.999997" height="100" preserveAspectRatio="xMidYMid meet" version="1.0"><defs><clipPath id="03ee43025a"><path d="M 0 5.578125 L 75 5.578125 L 75 69 L 0 69 Z M 0 5.578125 " clip-rule="nonzero"/></clipPath></defs><g clip-path="url(#03ee43025a)"><path fill="#2cb5e9" d="M 2.15625 37.035156 C 3.632812 32.09375 6.398438 27.605469 11.722656 24.476562 C 20.128906 19.539062 26.535156 20.90625 30.253906 19.90625 C 43.023438 16.480469 45.292969 7.335938 58.4375 5.953125 C 61.757812 5.601562 65.226562 5.914062 68.207031 7.421875 C 71.1875 8.929688 73.609375 11.75 74.09375 15.054688 C 74.992188 21.152344 69.511719 26.351562 68.539062 32.433594 C 67.867188 36.628906 69.386719 40.8125 70.476562 44.917969 C 71.566406 49.019531 72.15625 53.683594 69.882812 57.269531 C 67.492188 61.046875 62.617188 62.449219 58.148438 62.535156 C 53.679688 62.621094 49.207031 61.699219 44.761719 62.164062 C 35.796875 63.101562 30.453125 69.386719 21.527344 68.132812 C 14.347656 67.121094 8.148438 65.578125 3.589844 57.582031 C -0.00390625 51.28125 0.371094 43.019531 2.15625 37.035156 Z M 2.15625 37.035156 " fill-opacity="1" fill-rule="nonzero"/></g></svg>