<svg xmlns="http://www.w3.org/2000/svg" xmlns:xlink="http://www.w3.org/1999/xlink" width="180" zoomAndPan="magnify" viewBox="0 0 135 37.5" height="50" preserveAspectRatio="xMidYMid meet" version="1.0"><defs><clipPath id="d51f9ebd83"><path d="M 0.886719 5 L 134.109375 5 L 134.109375 32 L 0.886719 32 Z M 0.886719 5 " clip-rule="nonzero"/></clipPath><clipPath id="ed149898ac"><path d="M 32 31 L 37 31 L 37 32.640625 L 32 32.640625 Z M 32 31 " clip-rule="nonzero"/></clipPath><clipPath id="859022b803"><path d="M 25 31 L 27 31 L 27 32.640625 L 25 32.640625 Z M 25 31 " clip-rule="nonzero"/></clipPath><clipPath id="39d8722b31"><path d="M 36 31 L 38 31 L 38 32.640625 L 36 32.640625 Z M 36 31 " clip-rule="nonzero"/></clipPath></defs><g clip-path="url(#d51f9ebd83)"><path fill="#ffecb6" d="M 92.09375 29.621094 C 92.082031 29.570312 92.078125 29.523438 92.074219 29.472656 C 91.898438 29.480469 91.703125 29.382812 91.5625 29.679688 C 91.742188 29.660156 91.917969 29.644531 92.09375 29.621094 Z M 18.929688 20.679688 C 19.179688 20.726562 19.429688 20.867188 19.695312 20.679688 C 19.441406 20.679688 19.1875 20.679688 18.929688 20.679688 Z M 80.65625 7.503906 C 80.652344 7.457031 80.644531 7.410156 80.640625 7.363281 C 80.394531 7.394531 80.140625 7.285156 79.828125 7.503906 C 80.167969 7.503906 80.410156 7.503906 80.65625 7.503906 Z M 20.535156 20.722656 C 20.535156 20.753906 20.539062 20.78125 20.539062 20.804688 C 20.726562 20.804688 20.914062 20.804688 21.101562 20.804688 C 21.101562 20.78125 21.101562 20.753906 21.101562 20.722656 C 20.914062 20.722656 20.722656 20.722656 20.535156 20.722656 Z M 55.628906 9.664062 C 55.628906 9.617188 55.628906 9.570312 55.625 9.53125 C 55.375 9.367188 55.160156 9.488281 54.847656 9.707031 C 55.183594 9.683594 55.40625 9.675781 55.628906 9.664062 Z M 21.617188 20.8125 C 21.621094 20.832031 21.621094 20.851562 21.621094 20.867188 C 21.875 20.867188 22.125 20.867188 22.375 20.867188 C 22.375 20.851562 22.375 20.832031 22.375 20.8125 C 22.121094 20.8125 21.871094 20.8125 21.617188 20.8125 Z M 80.046875 30.085938 C 80.316406 30.054688 80.546875 30.152344 80.703125 29.902344 C 80.214844 29.761719 80.214844 29.761719 80.046875 30.085938 Z M 6.683594 11.765625 C 6.335938 11.542969 6.148438 11.789062 5.929688 11.886719 C 6.1875 11.996094 6.429688 12.03125 6.683594 11.765625 Z M 8.921875 23.886719 C 9.117188 23.996094 9.304688 24.125 9.578125 23.992188 C 9.371094 23.691406 9.148438 23.773438 8.921875 23.886719 Z M 116.339844 22.066406 C 116.058594 22.175781 115.839844 22.257812 115.542969 22.378906 C 116.136719 22.589844 116.328125 22.511719 116.339844 22.066406 Z M 74.488281 23.394531 C 75.113281 23.558594 75.113281 23.558594 75.238281 23.191406 C 74.957031 23.066406 74.71875 23.101562 74.488281 23.394531 Z M 3.1875 11.070312 C 3.550781 11.308594 3.777344 11.226562 3.964844 10.839844 C 3.660156 10.707031 3.449219 10.878906 3.1875 11.070312 Z M 110.25 8.957031 C 108.871094 8.671875 109.246094 8.710938 108.871094 8.863281 C 109.121094 8.953125 109.339844 9.03125 109.527344 9.097656 C 109.789062 9.046875 110.027344 9 110.25 8.957031 Z M 61.84375 27.304688 C 62.203125 27.429688 62.550781 27.453125 62.898438 27.328125 C 62.546875 27.234375 62.195312 27.035156 61.84375 27.304688 Z M 90.023438 29.433594 C 90.363281 29.800781 90.609375 29.511719 90.917969 29.386719 C 90.292969 29.058594 90.292969 29.058594 90.023438 29.433594 Z M 11.722656 24.390625 C 11.324219 24.121094 10.996094 24.046875 10.589844 24.132812 C 11.152344 24.585938 11.152344 24.585938 11.722656 24.390625 Z M 10.621094 21.828125 C 10.621094 21.773438 10.625 21.71875 10.628906 21.664062 C 10.230469 21.515625 9.839844 21.289062 9.390625 21.664062 C 9.800781 21.71875 10.207031 21.773438 10.621094 21.828125 Z M 49.09375 8.941406 C 48.675781 8.445312 48.265625 8.453125 47.953125 8.941406 C 48.332031 8.941406 48.691406 8.941406 49.09375 8.941406 Z M 106.199219 10.117188 C 106.707031 10.316406 107.691406 10.304688 108.160156 10.167969 C 107.507812 10.035156 106.84375 10.128906 106.199219 10.117188 Z M 55.378906 27.132812 C 54.808594 26.921875 53.953125 26.863281 53.621094 27.035156 C 54.214844 27.210938 54.769531 27.257812 55.378906 27.132812 Z M 72.601562 29.464844 C 72.671875 29.941406 73.519531 29.800781 73.96875 29.707031 C 73.519531 29.246094 73.066406 29.417969 72.601562 29.464844 Z M 98.582031 22.496094 C 98.296875 21.90625 97.882812 21.859375 97.203125 22.269531 C 97.617188 22.664062 98.074219 22.414062 98.582031 22.496094 Z M 60.28125 27.28125 C 60.273438 27.238281 60.261719 27.195312 60.246094 27.15625 C 58.179688 26.960938 58.003906 26.96875 57.601562 27.316406 C 60.609375 27.347656 59.761719 27.546875 60.28125 27.28125 Z M 75.410156 23.460938 C 76.472656 23.425781 77.480469 23.386719 78.496094 23.351562 C 78.496094 23.304688 78.496094 23.261719 78.5 23.222656 C 77.90625 23.136719 76.410156 23.355469 75.878906 23.070312 C 75.5625 22.898438 75.476562 22.945312 75.410156 23.460938 Z M 8.65625 12.3125 C 8.476562 12.234375 6.964844 12.367188 6.835938 12.382812 C 6.707031 12.398438 6.597656 12.5625 6.425781 12.703125 C 7.003906 12.9375 8.144531 12.910156 8.152344 12.753906 C 8.164062 12.464844 8.4375 12.453125 8.65625 12.3125 Z M 54.464844 9.636719 C 53.746094 9.5 51.722656 9.269531 51.226562 9.589844 C 51.402344 9.878906 53.339844 10.105469 54.464844 9.636719 Z M 5.835938 12.398438 C 4.980469 12.230469 4.378906 12.28125 4.136719 13.019531 C 4.863281 12.988281 5.582031 13.09375 6.300781 12.84375 C 6.164062 12.796875 6.03125 12.753906 5.910156 12.714844 C 5.878906 12.585938 5.859375 12.484375 5.835938 12.398438 Z M 13.976562 28.523438 C 16.234375 29.039062 16.550781 29.019531 16.792969 28.554688 C 15.78125 28.492188 14.898438 28.066406 13.929688 27.96875 C 13.945312 28.191406 13.960938 28.359375 13.976562 28.523438 Z M 10.21875 15.707031 C 10.832031 16.152344 13.058594 16.394531 13.800781 16.183594 C 13.726562 15.617188 13.300781 15.617188 10.21875 15.707031 Z M 11.71875 26.753906 C 12.203125 27.148438 11.59375 26.90625 13.476562 27.222656 C 16.105469 27.671875 15.667969 28.589844 17.574219 27.675781 C 12.210938 26.425781 12.203125 26.472656 11.71875 26.753906 Z M 10.921875 22.902344 C 10.925781 22.863281 10.925781 22.820312 10.933594 22.777344 C 9.511719 22.261719 7.511719 20.59375 8.035156 22.636719 C 8.148438 23.097656 8.214844 23.019531 9.320312 23.019531 C 9.320312 23.039062 9.324219 23.066406 9.324219 23.089844 C 9.136719 23.144531 8.953125 23.199219 8.765625 23.257812 C 9.117188 23.394531 9.40625 23.644531 9.785156 23.550781 C 9.742188 22.902344 9.765625 23.082031 10.921875 22.902344 Z M 9.539062 20.617188 C 11.363281 22.261719 13.707031 20.078125 15.296875 21.082031 C 15.585938 20.882812 15.855469 20.695312 16.21875 20.449219 C 13.242188 20.144531 9.800781 20.441406 9.539062 20.617188 Z M 56.863281 8.625 C 56.226562 8.625 50.878906 8.582031 49.828125 8.660156 C 50.019531 9.332031 50.300781 8.820312 51.191406 9.273438 C 51.429688 9.394531 51.839844 9.207031 52.382812 9.03125 C 52.460938 9.445312 52.773438 9.289062 53.796875 9.09375 C 54.160156 9.894531 56.144531 9.09375 56.863281 8.625 Z M 41.933594 30.007812 C 41.054688 29.324219 40.917969 29.746094 40.28125 29.613281 C 39.898438 29.535156 39.523438 29.382812 39.128906 29.542969 C 38.046875 29.023438 30.859375 28.554688 30.347656 29.035156 C 30.601562 29.519531 41.800781 30.019531 41.933594 30.007812 Z M 94.34375 19.652344 C 94.347656 19.597656 94.351562 19.546875 94.359375 19.496094 C 93.140625 19.457031 77.417969 19.542969 77.214844 20.050781 C 79.195312 20.386719 94.210938 19.660156 94.34375 19.652344 Z M 60.566406 9.019531 C 61.230469 9.789062 58.621094 9.617188 58.257812 9.484375 C 58.019531 9.398438 57.996094 9.542969 57.988281 9.738281 C 58.507812 10.054688 59.179688 9.542969 59.460938 10.027344 C 59.8125 9.929688 60.136719 9.847656 60.351562 9.785156 C 60.964844 10.089844 60.242188 9.855469 61.976562 9.964844 C 62.859375 10.019531 62.691406 9.785156 63.21875 9.582031 C 63.582031 9.441406 63.878906 9.707031 64.246094 9.757812 C 64.632812 9.367188 65.058594 9.585938 65.558594 9.714844 C 65.382812 9.851562 65.261719 9.945312 65.058594 10.097656 C 65.632812 10.222656 64.945312 10.339844 67.832031 9.457031 C 67.855469 9.5 67.871094 9.539062 67.886719 9.585938 C 67.53125 9.769531 67.175781 9.957031 66.722656 10.191406 C 67.332031 10.191406 67.8125 10.191406 68.1875 10.191406 C 68.476562 9.707031 68.726562 9.285156 68.988281 8.851562 C 68.550781 8.734375 68.050781 8.957031 67.714844 8.535156 C 66.707031 8.898438 66.746094 8.1875 66.375 8.503906 C 65.761719 9.039062 65.359375 8.460938 64.554688 8.550781 C 61.074219 8.941406 57.292969 8.171875 57.054688 8.976562 C 57.304688 9.0625 57.597656 9.269531 57.761719 9.195312 C 58.414062 8.898438 58.535156 9.34375 58.769531 9.285156 C 59.632812 9.070312 60.488281 9.683594 60.566406 9.019531 Z M 71.824219 23.394531 C 71.808594 23.351562 71.796875 23.308594 71.789062 23.269531 C 39.183594 23.269531 37.035156 21.109375 36.664062 22.503906 C 39.554688 24.011719 71.378906 23.808594 71.824219 23.394531 Z M 96.339844 29.417969 C 96.132812 29.289062 95.914062 29.261719 95.664062 29.363281 C 95.972656 29.683594 96.101562 29.683594 96.324219 29.398438 C 96.523438 29.425781 96.726562 29.480469 96.917969 29.246094 C 96.722656 29.207031 96.566406 29.175781 96.382812 29.132812 C 96.367188 29.253906 96.351562 29.335938 96.339844 29.417969 Z M 25.054688 31.890625 C 18.082031 31.339844 13.410156 29.941406 12.929688 29.378906 C 13.085938 29.347656 13.238281 29.320312 13.433594 29.277344 C 13.308594 29.132812 13.210938 29.023438 13.101562 28.898438 C 13.253906 28.773438 13.398438 28.660156 13.585938 28.507812 C 13.585938 28.507812 10.871094 27.957031 10.769531 27.9375 C 10.714844 27.832031 10.65625 27.710938 10.582031 27.578125 C 10.78125 27.460938 10.980469 27.347656 11.269531 27.1875 C 9.164062 26.375 9.261719 26.386719 9.523438 25.644531 C 8.171875 24.589844 7.929688 24.5625 7.832031 24.027344 C 7.746094 23.601562 7.472656 23.320312 7.132812 23.242188 C 3.925781 22.480469 3.808594 22.917969 3.273438 23.152344 C 3.230469 22.527344 3.273438 22.613281 4.207031 22.523438 C 4.089844 22.339844 4.011719 22.226562 3.890625 22.039062 C 4.984375 22.402344 4.703125 22.429688 5.820312 21.765625 C 5.78125 21.734375 5.707031 21.679688 5.640625 21.625 C 5.644531 21.601562 5.648438 21.582031 5.65625 21.5625 C 6.007812 21.65625 6.363281 21.75 6.789062 21.859375 C 6.367188 22.433594 6.300781 22.257812 7.339844 22.992188 C 7.398438 22.308594 7.242188 21.75 7.019531 21.203125 C 6.410156 21.195312 5.84375 21.078125 5.300781 20.648438 C 6.25 20.222656 6.164062 20.867188 6.851562 20.875 C 6.808594 20.488281 6.769531 20.136719 6.726562 19.71875 C 6.019531 19.730469 5.273438 19.625 4.535156 19.074219 C 4.878906 19.007812 5.113281 18.953125 5.351562 18.90625 C 5.359375 18.875 5.359375 18.84375 5.363281 18.8125 C 3.953125 18.351562 4.027344 18.4375 3.464844 18.046875 C 4.328125 17.6875 9.953125 18.945312 11.332031 18.828125 C 11.335938 18.792969 11.34375 18.761719 11.347656 18.726562 C 2.414062 16.785156 6.539062 17.589844 2.359375 17.292969 C 2.214844 17.027344 2.46875 16.992188 2.601562 16.832031 C 2.390625 16.757812 2.210938 16.695312 1.96875 16.613281 C 2.40625 16.269531 3.011719 16.113281 3.074219 15.445312 C 2.933594 15.421875 2.789062 15.394531 2.632812 15.367188 C 2.839844 14.882812 2.90625 14.847656 3.785156 14.765625 C 3.921875 14.125 3.195312 14.671875 1.933594 13.933594 C 2.289062 13.714844 2.429688 13.265625 2.996094 13.28125 C 2.84375 13.15625 2.777344 13.097656 2.6875 13.019531 C 2.71875 12.957031 2.757812 12.871094 2.804688 12.769531 C 2.542969 12.640625 2.460938 12.75 2.203125 12.6875 C 1.570312 12.527344 1.96875 12.277344 1.363281 12.210938 C 1.226562 12.199219 1.101562 12.105469 0.886719 12.007812 C 1.464844 11.570312 1.617188 11.757812 1.808594 11.214844 C 2.085938 10.460938 3.609375 10.320312 4.199219 10.425781 C 4.203125 10.386719 4.207031 10.351562 4.214844 10.316406 C 3.546875 10.175781 3.828125 10.257812 3.171875 9.988281 C 3.496094 9.523438 3.917969 9.535156 4.34375 9.539062 C 4.191406 9.617188 4.035156 9.695312 3.796875 9.808594 C 4.550781 10.003906 5.195312 10.128906 5.816406 9.632812 C 5.550781 9.144531 4.824219 9.636719 4.667969 9.0625 C 4.550781 9.03125 4.375 8.988281 4.167969 8.9375 C 4.371094 8.40625 4.859375 8.332031 5.300781 8.109375 C 4.878906 7.769531 4.972656 6.875 6.335938 6.597656 C 6.164062 7.019531 6.269531 7.378906 6.40625 7.761719 C 8.273438 7.816406 7.023438 7.75 9.03125 7.480469 C 9.359375 7.4375 9.65625 7.90625 10.082031 7.542969 C 10.214844 7.433594 12.773438 7.921875 13.195312 7.347656 C 13.617188 6.769531 15.890625 6.921875 17.863281 6.832031 C 17.863281 6.871094 17.867188 6.910156 17.867188 6.953125 C 14.871094 7.203125 14.859375 7.027344 14.953125 7.53125 C 17.25 7.605469 20.386719 7.136719 21.867188 7.171875 C 21.585938 7.417969 21.199219 7.113281 20.902344 7.363281 C 21.105469 7.6875 27.058594 7.65625 27.4375 7.234375 C 25.882812 6.824219 22.84375 7.285156 22.089844 6.40625 C 21.980469 6.519531 21.875 6.640625 21.804688 6.722656 C 21.109375 6.582031 20.441406 6.441406 19.738281 6.296875 C 20.335938 5.902344 23.925781 5.824219 24.546875 5.875 C 24.816406 5.667969 24.851562 5.8125 26.917969 5.4375 C 26.542969 4.980469 26.542969 5.324219 25.476562 5.324219 C 27.050781 4.808594 38.394531 5.214844 39.007812 5.480469 C 39.410156 5.324219 39.84375 5.761719 40.246094 5.40625 C 40.289062 5.371094 40.429688 5.449219 40.515625 5.480469 C 41.179688 5.710938 40.492188 5.730469 42.636719 5.449219 C 42.769531 5.433594 45.652344 6.027344 46.1875 5.820312 C 46.449219 5.71875 46.695312 5.777344 46.953125 5.796875 C 48.59375 5.921875 51.117188 5.273438 52.308594 5.679688 C 52.378906 5.699219 52.464844 5.636719 52.542969 5.632812 C 53.304688 5.601562 53.03125 6.039062 53.824219 5.621094 C 54.890625 5.992188 59.453125 5.578125 60.289062 5.90625 C 60.496094 5.867188 60.703125 5.464844 60.925781 5.914062 C 61.3125 5.886719 61.707031 5.890625 62.085938 5.824219 C 63.898438 5.515625 63.519531 6.214844 64.386719 5.652344 C 67.0625 6.46875 64.554688 5.71875 67.238281 5.636719 C 66.796875 5.792969 66.355469 5.953125 65.917969 6.109375 C 65.949219 6.320312 65.964844 6.453125 65.984375 6.609375 C 68.269531 6.949219 66.949219 5.539062 69.222656 5.789062 C 69.070312 5.992188 68.847656 6.164062 69.078125 6.386719 C 69.347656 6.359375 69.347656 6.359375 69.878906 5.8125 C 70.054688 5.929688 70.195312 5.792969 70.367188 5.75 C 71.324219 5.484375 72.449219 5.804688 73.484375 5.652344 C 73.5 5.6875 73.515625 5.726562 73.53125 5.761719 C 73.292969 5.921875 73.050781 6.078125 72.808594 6.242188 C 72.980469 6.980469 73.800781 6.65625 73.949219 5.902344 C 74.46875 5.757812 75.007812 5.609375 75.597656 5.449219 C 75.585938 5.761719 75.351562 5.875 75.234375 6.058594 C 74.628906 5.792969 74.207031 6.433594 74.078125 6.527344 C 73.753906 6.753906 73.75 6.832031 74.050781 7.222656 C 74.292969 7.058594 74.535156 6.90625 74.757812 6.71875 C 74.957031 6.546875 75.300781 6.652344 75.457031 6.339844 C 76.496094 6.511719 76.449219 6.609375 76.597656 6.085938 C 77.167969 5.90625 77.695312 5.746094 78.308594 5.554688 C 78.140625 5.703125 78.039062 5.882812 77.898438 5.914062 C 77.332031 6.027344 77.230469 6.535156 76.898438 6.972656 C 77.207031 7.019531 78.183594 7.183594 78.480469 7.0625 C 79.335938 6.730469 79.453125 7.433594 81.484375 7 C 81.570312 6.980469 81.664062 6.902344 81.734375 6.925781 C 82.519531 7.21875 83.582031 6.75 83.964844 6.917969 C 84.480469 7.128906 84.746094 7.140625 85.242188 6.890625 C 85.859375 7.402344 85.886719 6.808594 86.949219 6.96875 C 87.441406 7.042969 87.441406 7.0625 87.828125 6.84375 C 88.179688 6.953125 88.5 7.058594 88.847656 7.167969 C 88.753906 7.390625 88.644531 7.324219 86.886719 7.230469 C 87.003906 7.480469 87.078125 7.628906 87.1875 7.863281 C 85.636719 7.417969 85.617188 8.113281 85.039062 7.667969 C 85.574219 7.574219 86.058594 7.488281 86.542969 7.410156 C 86.535156 7.371094 86.535156 7.328125 86.53125 7.285156 C 82.222656 7.136719 80.25 7.824219 80.25 7.824219 C 80.183594 8.09375 80.128906 8.300781 80.078125 8.519531 C 79.800781 8.535156 79.53125 8.546875 79.214844 8.5625 C 79.246094 8.453125 79.265625 8.367188 79.296875 8.28125 C 78.921875 7.984375 78.796875 8.34375 77.90625 8.554688 C 77.683594 8.609375 77.414062 8.554688 77.246094 8.800781 C 77.214844 8.84375 77.101562 8.875 77.066406 8.851562 C 76.644531 8.609375 76.460938 8.859375 76.324219 9.226562 C 75.847656 8.953125 75.390625 8.992188 74.890625 9.207031 C 75.039062 9.078125 75.191406 8.945312 75.382812 8.773438 C 74.976562 8.625 71.703125 8.84375 71.449219 9.328125 C 72.242188 9.742188 72.527344 9.257812 72.917969 9.414062 C 73.230469 9.542969 73.519531 9.507812 73.816406 9.421875 C 73.949219 9.515625 74.074219 9.605469 74.222656 9.714844 C 74.675781 9.304688 75.867188 9.757812 76.003906 9.816406 C 75.050781 9.929688 74.96875 9.730469 74.757812 10.027344 C 73.605469 9.800781 73.765625 9.574219 72.480469 10.136719 C 77.828125 10.597656 77.535156 10.257812 79.84375 10.410156 C 80.015625 10.289062 80.285156 10.148438 80.597656 10.394531 C 80.675781 10.449219 81.007812 10.308594 81.03125 10.324219 C 81.675781 10.839844 81.820312 9.800781 83.621094 10.355469 C 84.585938 10.652344 85.011719 10.082031 85.515625 10.246094 C 88.039062 11.070312 94.8125 10.207031 94.945312 10.195312 C 94.945312 10.160156 94.945312 10.121094 94.945312 10.085938 C 92.480469 9.664062 93.222656 9.710938 92.40625 9.808594 C 92.574219 9.523438 92.574219 9.507812 92.902344 9.472656 C 93.21875 9.4375 93.4375 9.226562 93.722656 9.109375 C 93.160156 8.851562 92.503906 9.003906 91.96875 8.460938 C 92.484375 8.8125 92.886719 8.476562 93.308594 8.4375 C 94.316406 8.332031 94.554688 8.523438 96.132812 8.476562 C 96.136719 8.4375 96.144531 8.390625 96.148438 8.347656 C 95.988281 8.304688 95.832031 8.269531 95.566406 8.203125 C 96.347656 7.847656 120.539062 8.453125 122.15625 9.273438 C 121.433594 9.265625 111.308594 8.945312 111.308594 8.945312 C 111.785156 9.347656 114.277344 9.175781 115.339844 9.285156 C 115.105469 9.503906 115.101562 9.410156 113.8125 9.410156 C 114.574219 9.816406 114.410156 9.425781 117.125 9.808594 C 116.824219 10.039062 116.59375 10.210938 116.320312 10.417969 C 115.480469 10.222656 115.304688 10.152344 115.226562 10.199219 C 114.617188 10.542969 113.972656 10.285156 113.289062 10.320312 C 114.371094 10.839844 125.398438 10.660156 125.722656 11.921875 C 125.492188 12.039062 125.257812 11.886719 124.980469 11.921875 C 124.824219 12.375 124.347656 12.304688 123.9375 12.414062 C 123.972656 12.527344 124 12.617188 124.03125 12.738281 C 122.78125 13.234375 121.664062 12.527344 120.855469 13.027344 C 121.128906 13.105469 128.824219 13.683594 129.574219 14.582031 C 128.703125 14.671875 127.847656 14.4375 126.972656 14.675781 C 127.480469 14.847656 127.992188 15.019531 128.515625 15.203125 C 128.492188 15.84375 124.808594 15.03125 124.230469 15.28125 C 124.550781 15.972656 132.910156 16.175781 134.113281 16.773438 C 133.507812 16.863281 127.222656 16.246094 125.769531 16.289062 C 125.757812 16.324219 125.753906 16.355469 125.742188 16.394531 C 126.71875 17.039062 126.820312 17.027344 127.085938 16.769531 C 127.121094 16.738281 127.242188 16.738281 127.285156 16.769531 C 127.648438 17.066406 127.636719 16.644531 127.976562 16.898438 C 127.839844 16.964844 127.746094 17.011719 127.621094 17.070312 C 127.816406 17.222656 127.570312 17.191406 128.636719 17.148438 C 128.984375 17.132812 130.019531 17.585938 130.15625 17.671875 C 129.574219 17.621094 124.949219 17.433594 124.3125 17.828125 C 124.785156 17.90625 125.183594 17.96875 125.578125 18.03125 C 125.578125 18.046875 125.570312 18.0625 125.570312 18.078125 C 125.351562 18.125 125.140625 18.167969 124.855469 18.226562 C 124.839844 18.214844 124.746094 18.136719 124.59375 18.023438 C 124.5625 18.226562 124.546875 18.367188 124.527344 18.515625 C 125.097656 18.601562 125.695312 18.476562 126.3125 18.765625 C 125.765625 19.222656 125.769531 18.953125 122.304688 19.464844 C 122.308594 19.511719 122.308594 19.558594 122.3125 19.605469 C 123.273438 19.660156 124.230469 19.71875 125.1875 19.777344 C 124.734375 19.90625 124.230469 19.71875 123.792969 20.089844 C 123.703125 20.019531 123.601562 19.941406 123.523438 19.886719 C 121.441406 20.375 123.28125 19.972656 121.289062 19.972656 C 121.308594 20.035156 121.335938 20.105469 121.363281 20.167969 C 120.128906 20.894531 103.871094 21.800781 103.871094 21.800781 C 103.621094 21.707031 101.300781 21.925781 101.164062 21.929688 C 99.566406 22.03125 99.292969 21.710938 99 22.441406 C 104.359375 22.441406 114.945312 21.554688 117.394531 21.976562 C 117.214844 22.117188 117.183594 22.128906 116.621094 22.1875 C 116.796875 22.289062 116.945312 22.382812 117.09375 22.472656 C 117.089844 22.507812 117.078125 22.542969 117.070312 22.582031 C 116.445312 22.519531 115.902344 22.753906 115.347656 22.960938 C 114.835938 23.160156 97.5 23.742188 96.808594 23.601562 C 97.578125 23.355469 98.519531 23.589844 99.375 23.222656 C 98.800781 23.003906 93.9375 23.425781 92.765625 23.210938 C 92.421875 23.148438 92.0625 23.269531 91.777344 23.480469 C 90.417969 22.726562 89.367188 23.992188 87.890625 23.457031 C 87.582031 23.347656 87.296875 23.777344 87.066406 23.378906 C 86.933594 23.382812 84.3125 23.488281 84.25 23.953125 C 84.480469 23.96875 84.726562 23.964844 84.8125 24.234375 C 84.820312 24.261719 84.871094 24.289062 84.898438 24.289062 C 85.367188 24.289062 85.699219 24.574219 86.066406 24.789062 C 86.925781 25.289062 114.445312 23.355469 118.109375 23.351562 C 124.988281 23.332031 126.625 24.214844 127.804688 23.683594 C 127.722656 23.890625 127.667969 24.023438 127.628906 24.125 C 127.179688 24.09375 126.722656 23.9375 126.359375 24.058594 C 123.980469 24.835938 121.386719 23.90625 121.179688 24.539062 C 123.722656 24.859375 121.164062 24.308594 124.03125 24.542969 C 123.367188 25.046875 122.558594 24.871094 121.816406 24.992188 C 121.324219 24.75 120.976562 25.171875 120.574219 25.292969 C 118.269531 25.964844 101.171875 27.378906 99.890625 26.953125 C 99.058594 28.066406 66.023438 28.039062 66.023438 28.039062 C 66.324219 28.269531 66.664062 28.160156 67.011719 28.179688 C 67.097656 29.785156 87.011719 28.503906 91.382812 28.503906 C 91.292969 28.660156 91.25 28.742188 91.210938 28.824219 C 91.453125 28.996094 100.617188 28.445312 101.144531 28.441406 C 100.96875 28.46875 100.789062 28.492188 100.53125 28.527344 C 100.679688 28.691406 100.773438 28.785156 100.851562 28.863281 C 100.441406 28.949219 100.050781 29.035156 99.660156 29.121094 C 99.652344 29.082031 99.636719 29.042969 99.625 29.007812 C 99.765625 28.945312 99.90625 28.882812 100.050781 28.816406 C 99.761719 28.660156 99.433594 28.660156 98.933594 28.808594 C 98.964844 28.933594 98.996094 29.058594 99.027344 29.179688 C 98.667969 29.179688 98.335938 29.179688 97.945312 29.179688 C 98.03125 29.058594 98.101562 28.964844 98.171875 28.871094 C 97.820312 28.636719 97.601562 28.738281 97.304688 29.257812 C 97.484375 29.457031 97.902344 29.214844 97.992188 29.679688 C 95.488281 30.097656 98.792969 29.652344 93.128906 29.992188 C 92.847656 30.007812 92.542969 29.445312 92.246094 29.945312 C 92.21875 29.992188 92.125 30.050781 92.082031 30.039062 C 91.585938 29.886719 91.121094 30.1875 90.632812 30.125 C 89.882812 30.035156 90.300781 29.808594 89.792969 29.871094 C 89.441406 29.917969 89.179688 29.820312 89.074219 29.464844 C 88.894531 29.464844 88.742188 29.464844 88.554688 29.464844 C 88.515625 29.589844 88.476562 29.714844 88.429688 29.867188 C 88.09375 28.992188 88.269531 29.746094 86.980469 29.789062 C 84.089844 29.878906 83.691406 29.542969 83.335938 29.878906 C 83.304688 29.902344 83.230469 29.902344 83.183594 29.898438 C 82.460938 29.773438 82.460938 29.773438 81.710938 30.171875 C 81.710938 30.171875 76.617188 30.132812 74.800781 30.421875 C 75.53125 30.515625 76.277344 30.414062 77.042969 30.632812 C 76.761719 30.871094 75.84375 30.820312 75.476562 30.609375 C 75.132812 30.421875 74.617188 30.765625 74.347656 30.484375 C 74.203125 30.328125 74.027344 30.273438 73.792969 30.398438 C 73.683594 30.453125 73.496094 30.351562 73.347656 30.355469 C 66.988281 30.621094 51.632812 29.441406 50.878906 30.082031 C 51.011719 30.585938 60.769531 30.996094 61.050781 30.996094 C 60.957031 31.511719 60.410156 30.949219 60.054688 31.355469 C 60.011719 31.402344 59.859375 31.433594 59.808594 31.398438 C 59.421875 31.132812 58.902344 31.671875 58.246094 31.605469 C 57.992188 31.578125 57.753906 31.414062 57.480469 31.304688 C 56.90625 31.785156 57.179688 31.640625 56.40625 31.796875 C 56.316406 31.707031 56.226562 31.617188 56.175781 31.558594 C 55.324219 31.585938 53.039062 31.777344 52.589844 31.4375 C 52.570312 31.421875 49.398438 32.011719 48.652344 31.339844 C 48.566406 31.265625 48.269531 31.484375 48.082031 31.46875 C 47.15625 31.390625 46.632812 31.171875 46.40625 31.28125 C 45.363281 31.792969 45.121094 30.757812 44.25 31.75 C 36.875 31.460938 28.730469 30.570312 26.773438 30.730469 C 27.113281 31.164062 27.953125 30.78125 28.453125 31.054688 C 28.910156 30.820312 29.292969 31.210938 29.722656 31.210938 C 31.453125 31.210938 31.570312 31.132812 31.675781 31.636719 C 24.054688 31.085938 21.792969 30.183594 21.023438 30.726562 C 21.511719 30.828125 25.144531 31.523438 25.050781 31.902344 L 25.054688 31.890625 " fill-opacity="1" fill-rule="nonzero"/></g><path fill="#ffecb6" d="M 83.613281 9.21875 C 83.554688 9.28125 83.496094 9.34375 83.441406 9.398438 C 83.855469 10.007812 84.261719 9.699219 85.125 9.476562 C 85.464844 9.390625 87.347656 8.945312 87.625 9.410156 C 87.394531 9.3125 87.230469 9.320312 87.042969 9.488281 C 86.894531 9.621094 86.660156 9.652344 86.496094 9.773438 C 86.113281 10.054688 85.980469 9.804688 85.816406 9.878906 C 84.449219 10.472656 82.773438 9.394531 81.984375 9.941406 C 81.828125 10.042969 78.984375 9.617188 78.75 9.871094 C 78.5 10.144531 78.226562 10.019531 77.9375 9.945312 C 78.292969 9.789062 78.789062 9.925781 78.949219 9.351562 C 79.605469 9.910156 80.183594 9.457031 80.832031 9.273438 C 80.78125 9.398438 80.746094 9.472656 80.703125 9.566406 C 81.519531 10.011719 81.960938 9.171875 82.902344 9.296875 C 83.113281 9.328125 83.347656 9.175781 83.570312 9.109375 C 83.585938 9.144531 83.597656 9.179688 83.613281 9.21875 " fill-opacity="1" fill-rule="nonzero"/><path fill="#ffecb6" d="M 102.558594 7.21875 C 102.746094 7.25 102.941406 7.277344 103.171875 7.3125 C 102.820312 7.484375 101.675781 7.46875 100.40625 7.300781 C 100.59375 7.125 100.984375 7.285156 101.050781 6.902344 C 101.054688 6.871094 101.242188 6.847656 101.34375 6.859375 C 102.105469 6.949219 102.925781 6.734375 102.925781 6.734375 C 103.324219 6.902344 103.726562 7.046875 104.179688 6.855469 C 104.011719 7.394531 103.328125 6.871094 102.550781 7.152344 C 102.554688 7.171875 102.554688 7.199219 102.558594 7.21875 " fill-opacity="1" fill-rule="nonzero"/><path fill="#ffecb6" d="M 84.570312 7.640625 C 84.335938 7.675781 84.1875 7.699219 84.039062 7.71875 C 84.019531 7.878906 83.996094 8.019531 83.972656 8.179688 C 84.105469 8.226562 84.273438 8.285156 84.4375 8.34375 C 84.445312 8.367188 84.445312 8.394531 84.445312 8.425781 C 83.960938 8.457031 81.328125 8.582031 80.957031 8.410156 C 81.453125 8.222656 82.050781 8.425781 82.429688 7.960938 C 83.230469 8.285156 82.863281 8.238281 83.792969 8.101562 C 83.574219 7.917969 83.449219 7.816406 83.269531 7.660156 C 83.722656 7.589844 84.085938 7.425781 84.570312 7.640625 " fill-opacity="1" fill-rule="nonzero"/><path fill="#ffecb6" d="M 123.289062 8.953125 C 123.289062 8.953125 122.066406 8.847656 116.554688 8.21875 C 118.808594 8.347656 121.054688 8.492188 123.292969 8.78125 C 123.292969 8.835938 123.289062 8.894531 123.289062 8.953125 " fill-opacity="1" fill-rule="nonzero"/><path fill="#ffecb6" d="M 96.777344 7.390625 C 96.746094 7.3125 96.722656 7.230469 96.675781 7.09375 C 98.042969 7.160156 98.230469 7.230469 98.464844 6.980469 C 98.582031 6.855469 99.488281 6.683594 99.953125 6.90625 C 99.796875 7.550781 99.53125 7.03125 99.425781 7.167969 C 99.222656 7.417969 98.953125 7.308594 98.703125 7.3125 C 98.425781 7.324219 98.070312 7.515625 97.898438 7.402344 C 97.625 7.222656 97.078125 7.285156 96.761719 7.378906 L 96.777344 7.390625 " fill-opacity="1" fill-rule="nonzero"/><g clip-path="url(#ed149898ac)"><path fill="#ffecb6" d="M 36.464844 31.933594 C 36.125 32.09375 36.238281 31.949219 35.152344 31.871094 C 32.882812 31.707031 33.101562 31.933594 32.457031 31.546875 C 33.222656 31.179688 33.027344 31.558594 34.074219 31.621094 C 35.714844 31.707031 35.074219 31.570312 36.464844 31.824219 C 36.464844 31.859375 36.464844 31.894531 36.464844 31.933594 " fill-opacity="1" fill-rule="nonzero"/></g><path fill="#ffecb6" d="M 117.394531 9.914062 C 117.910156 9.839844 118.4375 9.730469 118.886719 10.121094 C 118.378906 10.097656 117.859375 10.261719 117.394531 9.914062 " fill-opacity="1" fill-rule="nonzero"/><path fill="#ffecb6" d="M 92.855469 7.082031 C 93.355469 6.980469 93.851562 6.875 94.351562 6.769531 C 94.363281 6.800781 94.375 6.832031 94.382812 6.863281 C 94.289062 6.910156 94.195312 6.957031 94.09375 7.011719 C 94.125 7.082031 94.160156 7.152344 94.203125 7.234375 C 93.742188 7.199219 93.300781 7.160156 92.859375 7.121094 C 92.855469 7.109375 92.855469 7.097656 92.855469 7.082031 " fill-opacity="1" fill-rule="nonzero"/><path fill="#ffecb6" d="M 106.171875 6.28125 C 105.707031 6.28125 105.246094 6.28125 104.703125 6.28125 C 105.230469 6.042969 105.683594 5.917969 106.171875 6.28125 " fill-opacity="1" fill-rule="nonzero"/><path fill="#ffecb6" d="M 91.164062 9.316406 C 91.765625 9.050781 92.328125 9.207031 92.886719 9.34375 C 92.0625 9.289062 91.871094 9.140625 91.539062 9.46875 C 91.3125 9.683594 91.257812 9.5 91.164062 9.316406 " fill-opacity="1" fill-rule="nonzero"/><g clip-path="url(#859022b803)"><path fill="#ffecb6" d="M 25.050781 31.902344 C 25.613281 31.5 25.644531 31.507812 26.425781 32.0625 C 25.933594 32 25.5 31.941406 25.0625 31.886719 C 25.054688 31.890625 25.050781 31.902344 25.050781 31.902344 " fill-opacity="1" fill-rule="nonzero"/></g><path fill="#ffecb6" d="M 105.8125 6.6875 C 105.449219 6.902344 105.402344 6.902344 104.988281 6.714844 C 105.34375 6.472656 105.34375 6.472656 105.8125 6.6875 " fill-opacity="1" fill-rule="nonzero"/><path fill="#ffecb6" d="M 91.464844 7.152344 C 91.109375 7.183594 90.75 7.214844 90.320312 7.253906 C 90.699219 6.9375 90.699219 6.9375 91.445312 7.03125 C 91.449219 7.074219 91.460938 7.109375 91.464844 7.152344 " fill-opacity="1" fill-rule="nonzero"/><path fill="#ffecb6" d="M 106.515625 7.519531 C 106.1875 7.660156 105.90625 7.636719 105.527344 7.511719 C 105.921875 7.332031 106.203125 7.4375 106.515625 7.519531 " fill-opacity="1" fill-rule="nonzero"/><path fill="#ffecb6" d="M 90.273438 9.492188 C 90.339844 9.421875 90.410156 9.347656 90.523438 9.222656 C 90.574219 9.605469 91.125 9.269531 91.109375 9.695312 C 90.851562 9.632812 90.585938 9.570312 90.273438 9.492188 " fill-opacity="1" fill-rule="nonzero"/><g clip-path="url(#39d8722b31)"><path fill="#ffecb6" d="M 37.546875 31.871094 C 37.269531 32.082031 37.007812 32.082031 36.742188 31.871094 C 37.007812 31.871094 37.28125 31.871094 37.546875 31.871094 " fill-opacity="1" fill-rule="nonzero"/></g><path fill="#ffecb6" d="M 96.761719 7.378906 C 96.574219 7.519531 96.445312 7.8125 96.132812 7.613281 C 96.210938 7.15625 96.550781 7.425781 96.777344 7.390625 C 96.777344 7.390625 96.761719 7.378906 96.761719 7.378906 " fill-opacity="1" fill-rule="nonzero"/><path fill="#ffecb6" d="M 112.167969 7.753906 C 112.40625 7.769531 112.648438 7.785156 112.945312 7.808594 C 112.632812 8.019531 112.632812 8.019531 112.167969 7.753906 " fill-opacity="1" fill-rule="nonzero"/><path fill="#ffecb6" d="M 122.53125 9.234375 C 122.84375 9.253906 123.164062 9.269531 123.476562 9.285156 C 123.476562 9.316406 123.476562 9.351562 123.476562 9.382812 C 123.15625 9.367188 122.84375 9.347656 122.527344 9.328125 C 122.527344 9.296875 122.53125 9.265625 122.53125 9.234375 " fill-opacity="1" fill-rule="nonzero"/><path fill="#ffecb6" d="M 91.898438 7.175781 C 92.175781 6.90625 92.175781 6.90625 92.410156 7.175781 C 92.21875 7.175781 92.058594 7.175781 91.898438 7.175781 " fill-opacity="1" fill-rule="nonzero"/><path fill="#ffecb6" d="M 104.574219 7.578125 C 104.792969 7.277344 105.046875 7.464844 105.265625 7.453125 C 105.050781 7.488281 104.839844 7.53125 104.574219 7.578125 " fill-opacity="1" fill-rule="nonzero"/><path fill="#ffecb6" d="M 94.597656 6.515625 C 94.804688 6.425781 94.953125 6.359375 95.117188 6.289062 C 95.214844 6.597656 94.921875 6.574219 94.828125 6.699219 C 94.757812 6.644531 94.695312 6.59375 94.597656 6.515625 " fill-opacity="1" fill-rule="nonzero"/><path fill="#ffecb6" d="M 8.890625 22.371094 C 9.199219 22.429688 9.449219 22.476562 9.742188 22.535156 C 9.648438 22.804688 9.308594 22.871094 8.890625 22.371094 " fill-opacity="1" fill-rule="nonzero"/></svg>