<svg xmlns="http://www.w3.org/2000/svg" xmlns:xlink="http://www.w3.org/1999/xlink" width="150" zoomAndPan="magnify" viewBox="0 0 112.5 75.749998" height="101" preserveAspectRatio="xMidYMid meet" version="1.0"><defs><clipPath id="76dddb9ee9"><path d="M 0 1 L 112 1 L 112 75.457031 L 0 75.457031 Z M 0 1 " clip-rule="nonzero"/></clipPath></defs><g clip-path="url(#76dddb9ee9)"><path fill="#f55712" d="M 109.039062 39.445312 C 108.820312 40.464844 108.519531 41.441406 108.128906 42.386719 C 106.800781 34.296875 104.171875 26.300781 99.714844 19.382812 C 95.203125 12.378906 88.851562 6.726562 81.121094 3.535156 C 73.945312 0.570312 65.671875 0.046875 58.414062 3.035156 C 53.335938 5.128906 48.832031 8.636719 45.816406 13.195312 C 38.304688 12.808594 30.941406 16.265625 25.328125 21.15625 C 22.082031 23.984375 19.316406 27.328125 16.84375 30.835938 C 14.316406 34.414062 12.058594 38.191406 10.058594 42.089844 C 6.027344 49.941406 3.03125 58.335938 1.222656 66.972656 C 0.777344 69.09375 0.410156 71.234375 0.105469 73.378906 C 0.00390625 74.097656 0.28125 74.824219 1.042969 75.035156 C 1.671875 75.207031 2.59375 74.816406 2.695312 74.09375 C 3.851562 65.894531 6.046875 57.851562 9.230469 50.203125 C 12.339844 42.726562 16.410156 35.398438 21.5 29.082031 C 26.488281 22.890625 32.96875 17.617188 40.980469 16.175781 C 42.066406 15.980469 43.175781 15.878906 44.285156 15.867188 C 43.921875 16.609375 43.589844 17.371094 43.304688 18.15625 C 40.839844 24.910156 41.804688 34.566406 48.867188 38.230469 C 51.984375 39.847656 55.828125 40.09375 59.015625 38.519531 C 62.496094 36.804688 64.15625 32.914062 63.972656 29.164062 C 63.582031 21.25 56.617188 15.214844 49.230469 13.640625 C 49.101562 13.613281 48.972656 13.585938 48.84375 13.5625 C 50.800781 10.957031 53.332031 8.757812 56.167969 7.113281 C 62.3125 3.550781 69.539062 2.890625 76.351562 4.738281 C 83.617188 6.714844 90.003906 11.214844 94.722656 17.03125 C 99.628906 23.074219 102.714844 30.445312 104.511719 37.96875 C 104.867188 39.460938 105.171875 40.964844 105.433594 42.476562 C 104.550781 41.429688 103.742188 40.320312 103.011719 39.152344 C 102.09375 37.695312 99.765625 39.039062 100.691406 40.511719 C 102.292969 43.0625 104.230469 45.394531 106.460938 47.417969 C 107.144531 48.035156 108.058594 47.871094 108.574219 47.148438 C 110.050781 45.054688 111.09375 42.664062 111.628906 40.160156 C 111.988281 38.472656 109.402344 37.75 109.039062 39.445312 Z M 59.355469 23.417969 C 61.101562 26.183594 62.003906 29.839844 60.703125 32.972656 C 59.515625 35.828125 56.628906 37.070312 53.707031 36.878906 C 50.597656 36.679688 47.953125 34.828125 46.425781 32.136719 C 44.78125 29.230469 44.394531 25.625 44.960938 22.367188 C 45.351562 20.121094 46.132812 18 47.222656 16.054688 C 52.078125 16.71875 56.671875 19.167969 59.355469 23.417969 Z M 59.355469 23.417969 " fill-opacity="1" fill-rule="nonzero"/></g></svg>