<svg xmlns="http://www.w3.org/2000/svg" xmlns:xlink="http://www.w3.org/1999/xlink" width="150" zoomAndPan="magnify" viewBox="0 0 112.5 75.749998" height="101" preserveAspectRatio="xMidYMid meet" version="1.0"><defs><clipPath id="137a85f25c"><path d="M 4 14 L 109 14 L 109 54 L 4 54 Z M 4 14 " clip-rule="nonzero"/></clipPath><clipPath id="05d2a58454"><path d="M 115.46875 44.101562 L 43.34375 100.964844 L -5.65625 38.808594 L 66.46875 -18.050781 Z M 115.46875 44.101562 " clip-rule="nonzero"/></clipPath><clipPath id="cd0b0e9c78"><path d="M 115.46875 44.101562 L 43.34375 100.964844 L -5.65625 38.808594 L 66.46875 -18.050781 Z M 115.46875 44.101562 " clip-rule="nonzero"/></clipPath></defs><g clip-path="url(#137a85f25c)"><g clip-path="url(#05d2a58454)"><g clip-path="url(#cd0b0e9c78)"><path fill="#f55712" d="M 8.335938 47.1875 C 9.359375 44.898438 10.480469 42.691406 11.75 40.59375 C 13.199219 38.234375 14.839844 36.050781 16.800781 34.09375 C 21 29.488281 27.445312 25.683594 34.101562 24.410156 C 39.566406 23.367188 45.191406 24.074219 49.761719 27.722656 C 48.765625 28.894531 47.871094 30.125 47.105469 31.433594 C 45.628906 33.980469 44.675781 36.820312 44.570312 40.09375 C 44.496094 42.390625 44.996094 45.621094 46.347656 47.851562 C 47.550781 49.839844 49.367188 51.109375 51.851562 50.945312 C 56.804688 50.609375 59.035156 47.070312 59.371094 42.480469 C 59.742188 37.3125 57.5 30.8125 54.808594 27.589844 C 55.878906 26.542969 56.988281 25.550781 58.09375 24.570312 C 62.667969 20.535156 68.65625 18.3125 74.980469 18.167969 C 80.839844 18.046875 86.976562 19.699219 92.554688 23.367188 C 97.089844 26.25 100.355469 30.542969 102.714844 34.882812 C 104.359375 37.90625 105.515625 40.945312 106.335938 43.660156 C 107.085938 46.132812 107.625 48.257812 107.664062 49.964844 C 107.65625 50.035156 107.707031 50.101562 107.777344 50.109375 C 107.847656 50.117188 107.914062 50.066406 107.921875 49.992188 C 108.347656 48.265625 108.582031 45.949219 108.277344 43.265625 C 107.9375 40.257812 106.9375 36.867188 105.402344 33.535156 C 103.113281 28.550781 99.429688 23.785156 94.484375 20.421875 C 88.273438 16.320312 81.417969 14.472656 74.878906 14.617188 C 67.703125 14.765625 60.902344 17.304688 55.691406 21.878906 C 54.515625 22.914062 53.332031 23.976562 52.199219 25.09375 C 46.734375 20.609375 39.972656 19.640625 33.402344 20.953125 C 26.046875 22.425781 18.960938 26.78125 14.378906 31.945312 C 12.871094 33.808594 11.585938 35.808594 10.488281 37.9375 C 9.6875 39.5 8.992188 41.128906 8.363281 42.792969 C 8.359375 43.300781 8.363281 43.8125 8.355469 44.320312 C 8.371094 45.273438 8.347656 46.234375 8.335938 47.1875 Z M 55.753906 42.226562 C 55.558594 44.886719 54.484375 47.136719 51.609375 47.324219 C 50.289062 47.414062 49.558594 46.351562 49.058594 45.160156 C 48.386719 43.589844 48.160156 41.65625 48.199219 40.210938 C 48.277344 37.582031 49.054688 35.296875 50.238281 33.25 C 50.847656 32.199219 51.554688 31.207031 52.335938 30.269531 C 54.417969 33.007812 56.050781 38.136719 55.753906 42.226562 Z M 4.792969 51.90625 C 4.59375 51.488281 4.515625 50.914062 4.503906 50.570312 C 4.457031 47.769531 4.421875 44.9375 4.625 42.109375 C 4.71875 40.847656 4.878906 39.597656 5.050781 38.347656 C 5.464844 35.394531 6.007812 32.535156 6.441406 29.625 C 6.453125 29.292969 6.726562 29.035156 7.0625 29.050781 C 7.390625 29.058594 7.652344 29.335938 7.636719 29.667969 C 7.910156 33.15625 8.230469 36.621094 8.351562 40.167969 C 8.378906 41.046875 8.382812 41.921875 8.382812 42.800781 C 7.777344 44.402344 7.242188 46.042969 6.761719 47.71875 C 6.648438 48.035156 6.816406 48.382812 7.132812 48.5 C 7.449219 48.613281 7.796875 48.445312 7.914062 48.128906 C 8.050781 47.816406 8.191406 47.503906 8.328125 47.191406 C 8.328125 47.40625 8.324219 47.632812 8.324219 47.847656 C 11.015625 45.554688 14.789062 41.992188 15.722656 41.148438 L 18.046875 39.175781 C 18.289062 39.039062 18.65625 38.523438 18.953125 38.429688 C 19.371094 38.292969 19.164062 38.328125 19.390625 38.394531 C 19.695312 38.488281 19.546875 38.1875 19.671875 38.292969 C 19.910156 38.488281 19.921875 38.050781 20 38.257812 C 20.039062 38.378906 20.140625 38.179688 20.148438 38.300781 C 20.167969 38.597656 20.730469 38.292969 20.441406 38.617188 C 20.386719 38.683594 20.558594 38.683594 20.457031 38.746094 C 20.171875 38.914062 20.9375 38.878906 20.078125 38.957031 C 20.070312 39.027344 20 39.074219 19.925781 39.066406 C 19.855469 39.054688 19.8125 38.984375 19.820312 38.914062 C 19.5 38.78125 19.609375 38.855469 19.609375 38.855469 C 19.609375 38.855469 19.34375 38.839844 19.484375 38.867188 C 19.640625 38.90625 19.351562 38.984375 19.453125 38.992188 C 19.585938 39 19.402344 39.148438 19.507812 39.128906 C 19.671875 39.09375 19.515625 39.347656 19.640625 39.269531 C 19.730469 39.222656 19.679688 39.402344 19.753906 39.332031 C 19.949219 39.144531 20.089844 39.707031 20.125 39.359375 C 20.144531 39.214844 20.492188 39.550781 20.386719 39.28125 C 20.359375 39.207031 20.597656 39.277344 20.496094 39.324219 C 20.367188 39.394531 20.636719 39.308594 20.664062 39.511719 C 20.703125 39.792969 20.566406 40.1875 20.441406 40.546875 C 20.34375 40.816406 20.164062 40.996094 20.054688 41.140625 L 17.972656 43.488281 C 16.832031 44.609375 11.464844 50.160156 9.011719 52.136719 C 8.273438 52.730469 7.648438 53.039062 7.332031 53.140625 C 6.625 53.34375 6.097656 53.148438 5.738281 52.953125 C 5.34375 52.738281 5.015625 52.375 4.792969 51.90625 Z M 4.792969 51.90625 " fill-opacity="1" fill-rule="nonzero"/></g></g></g></svg>